<svg width="90" height="28" viewBox="0 0 90 28" fill="none" xmlns="http://www.w3.org/2000/svg">
  <path d="M57.628 2.95h-1.691a.488.488 0 00-.345.143.505.505 0 00-.148.348v5.357a6.842 6.842 0 00-4.664-1.85c-3.92 0-7.113 3.37-7.113 7.522 0 4.151 3.194 7.523 7.113 7.523a6.838 6.838 0 004.749-1.932l.081.905a.52.52 0 00.16.317c.09.083.205.131.325.136h1.536a.489.489 0 00.34-.148.505.505 0 00.144-.346V3.465a.51.51 0 00-.298-.473.489.489 0 00-.19-.042zm-2.405 11.527c0 2.59-1.98 4.707-4.447 4.707-2.466 0-4.445-2.123-4.445-4.714 0-2.59 1.98-4.707 4.449-4.707 2.467 0 4.443 2.097 4.443 4.707v.007zM72.721 9.475A5.782 5.782 0 0071.53 8.14a5.315 5.315 0 00-1.536-.86 6.108 6.108 0 00-3.232-.227 7.089 7.089 0 00-3.536 1.789l-.082-.946a.519.519 0 00-.16-.317.503.503 0 00-.323-.136h-1.638a.488.488 0 00-.341.147.505.505 0 00-.144.347v12.97c.002.13.053.255.144.347.09.092.213.145.341.146h1.798a.49.49 0 00.341-.147.506.506 0 00.145-.346v-9.192c1.332-.945 2.505-1.623 3.88-1.87a3.838 3.838 0 011.899.206c.54.19 1.004.559 1.314 1.048.587.925.587 2.076.587 3.096v6.71c.002.13.053.255.144.347.09.092.213.145.341.147h1.837a.49.49 0 00.341-.147.507.507 0 00.145-.347V14.86c.02-1.253.02-2.569-.339-3.802a7.35 7.35 0 00-.734-1.583zM89.291 7.44H87.6a.488.488 0 00-.341.146.504.504 0 00-.144.347v.86a6.81 6.81 0 00-4.648-1.828c-3.92 0-7.112 3.37-7.112 7.521s3.186 7.534 7.107 7.534a6.915 6.915 0 004.749-1.912l.08.905a.52.52 0 00.16.316c.09.083.205.13.325.135h1.536a.488.488 0 00.34-.146.505.505 0 00.145-.346V7.995c-.02-.328-.223-.555-.506-.555zm-2.384 7.029c0 2.59-1.98 4.707-4.445 4.707-2.466 0-4.452-2.116-4.452-4.707 0-2.59 1.979-4.707 4.445-4.707s4.452 2.097 4.452 4.707zM42.541 12.993c-.507-3.415-3.17-6.021-6.596-6.021h-.086c-3.92 0-7.112 3.37-7.112 7.521 0 4.129 3.178 7.506 7.086 7.52h.144a7.68 7.68 0 003.238-.693 7.8 7.8 0 002.663-1.998.536.536 0 000-.678l-1.077-1.214a.51.51 0 00-.364-.172.484.484 0 00-.363.186c-.929 1.204-2.18 1.72-4.06 1.72h-.169c-2.15 0-3.93-1.61-4.35-3.74h10.033a1.102 1.102 0 00.8-.347 1.14 1.14 0 00.313-.825 9.739 9.739 0 00-.1-1.259zm-10.794-.332a4.511 4.511 0 011.604-2.083 4.396 4.396 0 012.476-.814h.137c1.86.01 3.403 1.147 3.952 2.895h-8.169v.002z" fill="#212121"/>
  <path d="M23.08 1.617c-2.765-2.398-7.14-2.104-13.091.719-7.166 3.405-8.384 6.135-8.683 6.826-1.954 4.516.198 8.495 2.762 12.28 2.975 4.394 5.688 6.343 9.052 6.538 1.596.087 3.63 0 6.214-2.54 1.593-1.565 3.191-4.118 4.671-8.318 1.859-5.286 3.966-11.273-.925-15.505zm-4.661 13.749c-2.31 6.551-3.928 6.384-5.22 6.267-1.241-.113-2.77-1.392-4.458-3.883-2.49-3.678-2.324-4.748-1.727-6.193.424-1.032 1.86-2.054 5.503-3.823 4.127-2.005 5.776-1.7 6.466-1.18 1.523 1.148 1.523 2.875-.564 8.812z" fill="url(#paint0_radial)"/>
  <defs>
    <radialGradient id="paint0_radial" cx="0" cy="0" r="1" gradientUnits="userSpaceOnUse" gradientTransform="matrix(25.2009 0 0 25.6334 14.058 14.752)">
      <stop offset=".25" stop-color="#17E33B"/>
      <stop offset=".43" stop-color="#1AEC84"/>
      <stop offset=".6" stop-color="#1DF5C6"/>
      <stop offset=".72" stop-color="#1EFAEF"/>
      <stop offset=".79" stop-color="#1FFCFF"/>
    </radialGradient>
  </defs>
</svg>