<svg height="36" viewBox="0 0 62 24" xmlns="http://www.w3.org/2000/svg">
  <path fill="#ffffff" d="M16.875 19l-5.8-8.775 5.75-8.825H12.6l-3.85 6-3.8-6H.575l5.75 8.75L.525 19H4.8l3.85-6.025L12.525 19h4.35zM24.26 5.775c-3.374 0-5.3 1.85-5.65 4.075h3.4c.2-.675.85-1.25 2.1-1.25 1.226 0 2.126.625 2.126 1.825v.6H23.41c-3.3 0-5.3 1.525-5.3 4.175 0 2.6 2 4.1 4.5 4.1 1.675 0 3.025-.65 3.825-1.7V19h3.375v-8.45c0-3.15-2.225-4.775-5.55-4.775zm-.65 10.7c-1.124 0-1.85-.55-1.85-1.45 0-.925.8-1.475 1.926-1.475h2.55v.575c0 1.5-1.225 2.35-2.625 2.35zM39.925 6.3c-1.8 0-3.275.65-4.225 1.975.25-2.425 1.225-3.625 3.675-4L44.3 3.55V.375l-5.275.875c-5.1.85-6.675 4.25-6.675 9.925 0 5.1 2.475 8.125 6.85 8.125 3.925 0 6.35-3 6.35-6.6 0-3.875-2.25-6.4-5.625-6.4zm-.9 9.95c-1.9 0-2.95-1.525-2.95-3.575 0-1.975 1.1-3.4 2.975-3.4 1.825 0 2.85 1.475 2.85 3.425 0 1.95-1 3.55-2.875 3.55zM55.285 5.775c-1.9 0-3.124.825-3.774 1.8v-1.5h-3.5v17.7h3.65V17.75c.65.9 1.874 1.55 3.524 1.55 3.175 0 5.7-2.5 5.7-6.75 0-4.325-2.524-6.775-5.6-6.775zm-.874 10.375c-1.7 0-2.825-1.375-2.825-3.55v-.1c0-2.175 1.125-3.575 2.825-3.575 1.7 0 2.8 1.425 2.8 3.625s-1.1 3.6-2.8 3.6z" />
</svg>