<svg width="117" height="28" fill="none" xmlns="http://www.w3.org/2000/svg">
  <path d="M17.93 20.969a1.607 1.607 0 0 1 2.745 1.144c0 .428-.17.838-.473 1.14l-2.795 2.79c-2.58 2.576-6.784 2.613-9.407.087l-5.034-4.936C.403 18.68.148 14.66 2.559 12.079l4.497-4.815c2.393-2.563 6.804-2.843 9.541-.63l4.084 3.303a1.614 1.614 0 0 1-.84 2.857 1.61 1.61 0 0 1-1.182-.349l-4.084-3.302c-1.43-1.157-3.934-.999-5.17.324L4.91 14.28c-1.174 1.257-1.045 3.282.307 4.609l5.011 4.913c1.364 1.313 3.568 1.294 4.907-.043l2.795-2.791Z" fill="#FFA116"/>
  <path fill-rule="evenodd" clip-rule="evenodd" d="M11.14 18.176a1.61 1.61 0 0 1-1.61-1.612c0-.89.72-1.612 1.61-1.612h11.868a1.611 1.611 0 0 1 0 3.224H11.139Z" fill="#333333"/>
  <path fill-rule="evenodd" clip-rule="evenodd" d="M13.362.51a1.608 1.608 0 0 1 2.784 1.049c.014.427-.142.842-.434 1.155L4.91 14.28c-1.174 1.257-1.045 3.281.307 4.608l4.99 4.892a1.614 1.614 0 0 1-1.11 2.764 1.606 1.606 0 0 1-1.142-.46l-4.99-4.892C.404 18.68.149 14.66 2.56 12.078L13.362.51Zm20.826 9.305v10.61c0 .408.145.756.434 1.045.29.29.637.434 1.045.434h2.87c.25 0 .463.089.64.266a.873.873 0 0 1 .266.642v.019a.84.84 0 0 1-.266.631.874.874 0 0 1-.64.266h-2.87a3.183 3.183 0 0 1-2.337-.966 3.184 3.184 0 0 1-.966-2.337V9.815c0-.25.088-.463.266-.64a.88.88 0 0 1 .63-.257h.03a.88.88 0 0 1 .632.256.874.874 0 0 1 .266.641Zm11.428 4.99c-.986 0-1.827.348-2.524 1.045a3.455 3.455 0 0 0-1.035 2.524c0 .178.013.352.039.523l6.242-2.82c-.71-.848-1.617-1.273-2.722-1.273Zm4.891 1.301a.87.87 0 0 1 .03.69.868.868 0 0 1-.474.503c-.92.414-2.13.96-3.628 1.637l-3.62 1.637c.71.907 1.644 1.36 2.801 1.36.77 0 1.466-.226 2.09-.68a3.483 3.483 0 0 0 1.273-1.715c.144-.408.434-.612.867-.612.31 0 .556.128.74.385.177.25.214.522.108.818a5.185 5.185 0 0 1-1.932 2.584 5.256 5.256 0 0 1-3.146 1.015c-1.486 0-2.754-.525-3.806-1.577s-1.578-2.32-1.578-3.806c0-1.486.526-2.755 1.578-3.806 1.052-1.052 2.32-1.578 3.806-1.578 1.072 0 2.051.292 2.939.877a5.262 5.262 0 0 1 1.952 2.268Zm7.11-1.302a3.44 3.44 0 0 0-2.525 1.046 3.455 3.455 0 0 0-1.035 2.524c0 .178.013.352.04.523l6.241-2.82c-.71-.848-1.617-1.273-2.721-1.273Zm4.89 1.302a.87.87 0 0 1 .03.69.868.868 0 0 1-.473.503l-3.629 1.637-3.619 1.637c.71.907 1.643 1.36 2.8 1.36.77 0 1.466-.226 2.09-.68a3.483 3.483 0 0 0 1.273-1.715c.145-.408.434-.612.867-.612.31 0 .556.128.74.385.178.25.214.522.109.818a5.186 5.186 0 0 1-1.933 2.584 5.256 5.256 0 0 1-3.146 1.015c-1.486 0-2.754-.525-3.806-1.577s-1.578-2.32-1.578-3.806c0-1.486.526-2.755 1.578-3.806 1.052-1.052 2.32-1.578 3.806-1.578 1.072 0 2.051.292 2.939.877a5.264 5.264 0 0 1 1.952 2.268Zm2.949-7.188a.88.88 0 0 1 .63.256.872.872 0 0 1 .267.641v3.146h1.775c.243 0 .453.088.63.266a.874.874 0 0 1 .267.641v.02a.84.84 0 0 1-.266.63.862.862 0 0 1-.631.267h-1.775v6.143c0 .27.095.5.286.69.19.19.424.286.7.286h.789c.243 0 .453.089.63.266a.873.873 0 0 1 .267.642v.019c0 .25-.089.46-.266.631a.863.863 0 0 1-.631.266h-.79a2.73 2.73 0 0 1-1.99-.818 2.72 2.72 0 0 1-.82-1.982V9.815c0-.25.09-.463.267-.64a.88.88 0 0 1 .631-.257h.03Zm12.108 0c.625 0 1.24.076 1.844.227.454.118.68.407.68.867v.03a.86.86 0 0 1-.354.71.853.853 0 0 1-.77.158 5.6 5.6 0 0 0-1.4-.178c-1.538 0-2.853.546-3.944 1.637-1.091 1.091-1.637 2.41-1.637 3.954 0 1.545.546 2.863 1.637 3.954 1.091 1.085 2.406 1.627 3.944 1.627.474 0 .94-.055 1.4-.168a.854.854 0 0 1 .77.158.844.844 0 0 1 .355.71v.02c0 .467-.227.76-.68.878a7.575 7.575 0 0 1-1.845.226c-2.044 0-3.79-.723-5.236-2.169-1.446-1.446-2.169-3.191-2.169-5.236 0-2.044.723-3.79 2.17-5.236 1.446-1.446 3.19-2.17 5.235-2.17Zm9.19 5.887a3.44 3.44 0 0 0-2.524 1.045 3.456 3.456 0 0 0-1.035 2.524c0 .98.345 1.818 1.035 2.515a3.44 3.44 0 0 0 2.524 1.045 3.41 3.41 0 0 0 2.515-1.045c.696-.697 1.045-1.535 1.045-2.515a3.44 3.44 0 0 0-1.045-2.524c-.69-.697-1.529-1.045-2.515-1.045Zm0-1.844c1.486 0 2.755.526 3.806 1.578 1.052 1.051 1.578 2.32 1.578 3.806 0 1.485-.526 2.754-1.578 3.806-1.051 1.052-2.32 1.577-3.806 1.577-1.485 0-2.754-.525-3.806-1.577s-1.578-2.32-1.578-3.806c0-1.486.526-2.755 1.578-3.806 1.052-1.052 2.32-1.578 3.806-1.578Zm12.148 1.844a3.44 3.44 0 0 0-2.524 1.045 3.456 3.456 0 0 0-1.035 2.524c0 .98.345 1.818 1.035 2.515a3.44 3.44 0 0 0 2.524 1.045c.987 0 1.825-.349 2.515-1.045a3.426 3.426 0 0 0 1.045-2.515c0-.986-.348-1.827-1.045-2.524-.69-.697-1.528-1.045-2.514-1.045Zm4.487-5.887c.243 0 .454.085.631.256a.875.875 0 0 1 .266.641v8.56c-.006 1.478-.535 2.74-1.587 3.786-1.052 1.045-2.318 1.567-3.797 1.567-1.485 0-2.754-.525-3.806-1.577s-1.577-2.32-1.577-3.806c0-1.486.525-2.755 1.577-3.806 1.052-1.052 2.32-1.578 3.806-1.578 1.355 0 2.541.45 3.56 1.35V9.816c0-.25.089-.463.266-.64a.882.882 0 0 1 .632-.257h.029Zm7.957 5.887c-.986 0-1.827.348-2.524 1.045a3.457 3.457 0 0 0-1.035 2.524c0 .178.013.352.039.523l6.242-2.82c-.71-.848-1.617-1.273-2.721-1.273h-.001Zm4.891 1.301a.871.871 0 0 1 .03.69.867.867 0 0 1-.474.503c-.92.414-2.129.96-3.628 1.637l-3.619 1.637c.71.907 1.643 1.36 2.8 1.36a3.47 3.47 0 0 0 2.091-.68 3.48 3.48 0 0 0 1.272-1.715c.144-.408.434-.612.868-.612.309 0 .555.128.739.385.178.25.214.522.109.818a5.193 5.193 0 0 1-1.933 2.584 5.257 5.257 0 0 1-3.145 1.015c-1.486 0-2.755-.525-3.807-1.577s-1.577-2.32-1.577-3.806c0-1.486.525-2.755 1.577-3.806 1.052-1.052 2.321-1.578 3.806-1.578a5.23 5.23 0 0 1 2.939.877 5.263 5.263 0 0 1 1.952 2.268Z" fill="#333333"/>
</svg>