<svg height="210" width="32" viewBox="0 0 210 32" fill="none" xmlns="http://www.w3.org/2000/svg">
  <path d="M70.237 19.135c-.228 1.955-.952 3.466-2.17 4.532-1.21 1.058-2.823 1.587-4.837 1.587-2.184 0-3.936-.783-5.256-2.349-1.312-1.566-1.968-3.66-1.968-6.284v-1.777c0-1.718.304-3.23.914-4.532.618-1.304 1.49-2.303 2.615-2.997 1.126-.702 2.43-1.053 3.91-1.053 1.964 0 3.538.55 4.723 1.65 1.185 1.092 1.875 2.607 2.07 4.545h-2.45c-.212-1.473-.674-2.539-1.385-3.2-.702-.66-1.688-.99-2.958-.99-1.557 0-2.78.576-3.669 1.727-.88 1.151-1.32 2.789-1.32 4.913v1.79c0 2.006.419 3.602 1.257 4.786.838 1.185 2.01 1.778 3.517 1.778 1.354 0 2.39-.305 3.11-.914.728-.618 1.21-1.689 1.447-3.212h2.45zM81.69 25c-.136-.27-.246-.753-.33-1.447-1.092 1.134-2.396 1.7-3.91 1.7-1.355 0-2.468-.38-3.34-1.142-.863-.77-1.294-1.743-1.294-2.92 0-1.43.541-2.539 1.624-3.326 1.092-.795 2.624-1.193 4.596-1.193h2.285v-1.08c0-.82-.245-1.472-.736-1.954-.49-.491-1.215-.737-2.17-.737-.839 0-1.541.212-2.108.635-.567.423-.85.935-.85 1.536h-2.362c0-.685.241-1.345.723-1.98.491-.643 1.151-1.151 1.98-1.524.839-.372 1.757-.558 2.756-.558 1.582 0 2.822.398 3.72 1.193.897.787 1.362 1.875 1.396 3.263v6.322c0 1.261.16 2.264.482 3.009V25H81.69zm-3.898-1.79c.736 0 1.435-.19 2.095-.571.66-.381 1.138-.876 1.434-1.486v-2.818h-1.84c-2.878 0-4.317.842-4.317 2.526 0 .737.246 1.312.736 1.727.491.415 1.122.622 1.892.622zM89.902 25h-2.348V5.5h2.348V25zm6.323 0h-2.349V5.5h2.349V25zm14.333-8.163h-7.757V25h-2.438V6.516h11.451V8.52h-9.013v6.323h7.757v1.993zm10.118-3.466a7.04 7.04 0 0 0-1.155-.089c-1.541 0-2.586.656-3.136 1.968V25h-2.349V11.264h2.285l.038 1.587c.771-1.228 1.862-1.841 3.276-1.841.457 0 .804.059 1.041.178v2.183zm1.295 4.634c0-1.346.262-2.556.787-3.631.533-1.075 1.269-1.904 2.209-2.488.948-.584 2.027-.876 3.237-.876 1.871 0 3.381.647 4.532 1.942 1.16 1.295 1.74 3.017 1.74 5.167v.165c0 1.337-.259 2.54-.775 3.606-.508 1.058-1.24 1.883-2.196 2.475-.948.593-2.04.889-3.276.889-1.861 0-3.372-.648-4.532-1.943-1.151-1.294-1.726-3.008-1.726-5.141v-.165zm2.361.28c0 1.523.351 2.746 1.054 3.668.711.923 1.659 1.384 2.843 1.384 1.194 0 2.142-.466 2.844-1.397.703-.939 1.054-2.25 1.054-3.935 0-1.507-.36-2.725-1.079-3.656-.711-.94-1.659-1.41-2.844-1.41-1.159 0-2.095.462-2.806 1.384-.71.923-1.066 2.243-1.066 3.961zm15.298-7.021.063 1.523c1.008-1.185 2.366-1.777 4.076-1.777 1.921 0 3.228.736 3.922 2.209a5.222 5.222 0 0 1 1.778-1.6c.736-.406 1.604-.61 2.602-.61 3.013 0 4.545 1.596 4.596 4.787V25h-2.349v-9.065c0-.981-.224-1.713-.672-2.196-.449-.49-1.202-.736-2.26-.736-.872 0-1.596.262-2.171.787-.576.516-.91 1.215-1.003 2.095V25h-2.361v-9.001c0-1.997-.978-2.996-2.933-2.996-1.54 0-2.594.656-3.161 1.968V25h-2.349V11.264h2.222zm24.946 7.909.356 2.437.52-2.196 3.656-12.898h2.057l3.567 12.898.508 2.234.394-2.488 2.869-12.644h2.45L176.472 25h-2.222l-3.809-13.47-.292-1.409-.292 1.41L165.909 25h-2.221l-4.469-18.484h2.437l2.92 12.657zm24.02 6.08c-1.862 0-3.377-.608-4.545-1.827-1.168-1.227-1.752-2.865-1.752-4.913v-.432c0-1.363.258-2.577.774-3.643.525-1.075 1.253-1.913 2.184-2.514a5.492 5.492 0 0 1 3.047-.914c1.786 0 3.174.588 4.164 1.764.99 1.177 1.485 2.861 1.485 5.053v.978h-9.306c.034 1.354.428 2.45 1.181 3.288.762.83 1.727 1.244 2.895 1.244.829 0 1.532-.17 2.107-.508a5.294 5.294 0 0 0 1.511-1.346l1.434 1.118c-1.151 1.768-2.877 2.653-5.179 2.653zm-.292-12.313c-.948 0-1.744.347-2.387 1.04-.643.686-1.041 1.65-1.193 2.895h6.88v-.178c-.067-1.193-.389-2.116-.964-2.767-.576-.66-1.355-.99-2.336-.99zm20.008 5.344c0 2.1-.483 3.788-1.448 5.066-.965 1.27-2.26 1.904-3.885 1.904-1.735 0-3.076-.614-4.024-1.84L198.841 25h-2.158V5.5h2.348v7.274c.948-1.176 2.256-1.764 3.923-1.764 1.667 0 2.975.63 3.923 1.891.956 1.261 1.435 2.988 1.435 5.18v.203zm-2.349-.266c0-1.6-.309-2.836-.927-3.708-.618-.871-1.506-1.307-2.666-1.307-1.549 0-2.662.72-3.339 2.158v5.941c.72 1.44 1.841 2.159 3.365 2.159 1.125 0 2.001-.436 2.627-1.308.627-.872.94-2.183.94-3.935zM1 30.7h45z" fill="#000"/>
  <path d="M1 30.7h45" stroke="#000" stroke-width="2" stroke-linecap="round"/>
  <path d="M4.5 27.2V3.7A2.5 2.5 0 0 1 7 1.2h20.5" stroke="#000" stroke-width="2" stroke-linecap="round" stroke-linejoin="round"/>
  <path fill-rule="evenodd" clip-rule="evenodd" d="M23.2 4.2c-.1 0-.3 0-.4.1l-1.6 1.3 3.6 4.6 1.6-1.3c.3-.2.3-.5.1-.8l-2.9-3.7c-.1-.1-.2-.2-.4-.2zm3 12.8c1 1.3 2.1 2.3 3.2 2.9 1 .6 1.8.7 2.5.5l3.6 4.7-1 .7c-2 1.6-7.1-1.5-11.1-6.7S17.6 8.3 19.6 6.7l1-.7 3.6 4.7c-.4.5-.5 1.4-.1 2.5.4 1.2 1.1 2.5 2.1 3.8zm7.9 1.7c.3-.2.6-.2.8.1l2.9 3.7c.1.1.1.3.1.4 0 .2-.1.3-.2.4L36 24.6 32.4 20l1.7-1.3z" fill="#000"/>
  <path d="M30.5 10.6c0 .3.2.5.5.5 1.7 0 3 1.4 3 3 0 .3.2.5.5.5s.5-.2.5-.5c0-2.2-1.8-4-4-4-.3 0-.5.2-.5.5zm8 3.4c0 .3.2.5.5.5s.5-.2.5-.5c0-4.7-3.8-8.4-8.4-8.4-.3 0-.5.2-.5.5s.2.5.5.5c4-.1 7.4 3.3 7.4 7.4z" fill="#000" stroke="#000"/>
  <path d="M31 1c-.3 0-.5.2-.5.5s.2.5.5.5c6.7 0 12.1 5.4 12.1 12.1 0 .3.2.5.5.5s.5-.2.5-.5C44 6.8 38.2 1 31 1z" fill="#000" stroke="#000"/>
  <path d="M43.5 27.2v-9z" fill="#000"/>
  <path d="M43.5 27.2v-9" stroke="#000" stroke-width="2" stroke-linecap="round" stroke-linejoin="round"/>
</svg>